# Blender v2.75 (sub 0) OBJ File: ''
# www.blender.org
mtllib alice.mtl
o Cylinder_Cylinder.002
v 0.444638 0.659367 -0.695482
v 0.442184 2.750116 -0.239195
v 1.172881 0.580316 -0.329345
v 1.170426 2.671065 0.126942
v 1.422963 0.414323 0.432593
v 1.420509 2.505073 0.888880
v 1.048391 0.258626 1.143998
v 1.045936 2.349375 1.600285
v 0.268582 0.204429 1.388139
v 0.266128 2.295178 1.844425
v -0.459661 0.283480 1.022001
v -0.462115 2.374230 1.478288
v -0.709743 0.449472 0.260064
v -0.712197 2.540222 0.716351
v -0.335170 0.605170 -0.451341
v -0.337625 2.695919 0.004946
v 0.420430 0.596813 -0.408984
v 0.417976 2.687562 0.047303
v 0.948414 0.539502 -0.143541
v 0.945959 2.630251 0.312746
v 1.129716 0.419156 0.408870
v 1.127262 2.509906 0.865157
v 0.858157 0.306274 0.924646
v 0.855703 2.397024 1.380933
v 0.292790 0.266983 1.101641
v 0.290335 2.357732 1.557928
v -0.235193 0.324294 0.836197
v -0.237648 2.415043 1.292484
v -0.416496 0.444639 0.283787
v -0.418950 2.535389 0.740074
v -0.144937 0.557522 -0.231989
v -0.147391 2.648271 0.224298
vn 0.457400 0.190100 -0.868700
vn 0.952200 0.066200 -0.298100
vn 0.889300 -0.096500 0.447100
vn 0.305400 -0.202700 0.930400
vn -0.457400 -0.190100 0.868700
vn -0.952200 -0.066200 0.298100
vn -0.889300 0.096500 -0.447100
vn -0.305400 0.202700 -0.930400
vn 0.001100 -0.977000 -0.213200
vn -0.001100 0.977000 0.213200
usemtl None
s off
f 2//1 4//1 3//1
f 4//2 6//2 5//2
f 5//3 6//3 8//3
f 8//4 10//4 9//4
f 9//5 10//5 12//5
f 12//6 14//6 13//6
f 14//7 16//7 15//7
f 16//8 2//8 1//8
f 20//5 18//5 17//5
f 22//6 20//6 19//6
f 24//7 22//7 21//7
f 25//8 26//8 24//8
f 27//1 28//1 26//1
f 30//2 28//2 27//2
f 32//3 30//3 29//3
f 18//4 32//4 31//4
f 1//9 3//9 19//9
f 2//10 18//10 20//10
f 5//9 21//9 19//9
f 6//10 4//10 20//10
f 5//9 7//9 23//9
f 6//10 22//10 24//10
f 9//9 25//9 23//9
f 10//10 8//10 24//10
f 9//9 11//9 27//9
f 10//10 26//10 28//10
f 13//9 29//9 27//9
f 14//10 12//10 28//10
f 13//9 15//9 31//9
f 14//10 30//10 32//10
f 1//9 17//9 31//9
f 2//10 16//10 32//10
f 1//1 2//1 3//1
f 3//2 4//2 5//2
f 7//3 5//3 8//3
f 7//4 8//4 9//4
f 11//5 9//5 12//5
f 11//6 12//6 13//6
f 13//7 14//7 15//7
f 15//8 16//8 1//8
f 19//5 20//5 17//5
f 21//6 22//6 19//6
f 23//7 24//7 21//7
f 23//8 25//8 24//8
f 25//1 27//1 26//1
f 29//2 30//2 27//2
f 31//3 32//3 29//3
f 17//4 18//4 31//4
f 17//9 1//9 19//9
f 4//10 2//10 20//10
f 3//9 5//9 19//9
f 22//10 6//10 20//10
f 21//9 5//9 23//9
f 8//10 6//10 24//10
f 7//9 9//9 23//9
f 26//10 10//10 24//10
f 25//9 9//9 27//9
f 12//10 10//10 28//10
f 11//9 13//9 27//9
f 30//10 14//10 28//10
f 29//9 13//9 31//9
f 16//10 14//10 32//10
f 15//9 1//9 31//9
f 18//10 2//10 32//10
